<svg width="21" height="21" viewBox="0 0 21 21" fill="none" xmlns="http://www.w3.org/2000/svg">
<path d="M19.89 10.43C19.8102 12.8818 18.7802 15.2065 17.0176 16.9126C15.255 18.6187 12.8981 19.5726 10.445 19.5726C7.99193 19.5726 5.63498 18.6187 3.87241 16.9126C2.10984 15.2065 1.07979 12.8818 1 10.43C1 8.02 3.74 9.71 3.74 5.76C3.74 1.81 6.28 1 10.5 1C12.9924 1.01582 15.3777 2.01568 17.1364 3.78187C18.8951 5.54805 19.8848 7.93753 19.89 10.43V10.43Z" stroke="#50C4CD" stroke-miterlimit="10"/>
<path d="M7.97989 8.54923H11.6799C11.8777 8.54923 12.071 8.49058 12.2355 8.3807C12.3999 8.27082 12.5281 8.11464 12.6038 7.93192C12.6795 7.74919 12.6993 7.54812 12.6607 7.35414C12.6221 7.16016 12.5268 6.98198 12.387 6.84213C12.2471 6.70227 12.069 6.60703 11.875 6.56845C11.681 6.52986 11.4799 6.54966 11.2972 6.62535C11.1145 6.70104 10.9583 6.82921 10.8484 6.99366C10.7385 7.15811 10.6799 7.35145 10.6799 7.54923H9.85989C9.86384 7.18775 9.97478 6.83553 10.1787 6.53702C10.3826 6.23851 10.6704 6.00709 11.0057 5.87194C11.341 5.7368 11.7088 5.70399 12.0627 5.77766C12.4166 5.85133 12.7408 6.02817 12.9943 6.28587C13.2478 6.54358 13.4194 6.8706 13.4872 7.22568C13.5551 7.58076 13.5163 7.94799 13.3757 8.28103C13.2351 8.61407 12.999 8.89801 12.6972 9.09702C12.3954 9.29603 12.0414 9.40119 11.6799 9.39923H7.91989C7.77325 9.40182 7.62858 9.43344 7.49424 9.49227C7.3599 9.55109 7.23854 9.63596 7.13719 9.74196C7.03584 9.84796 6.9565 9.973 6.90375 10.1098C6.851 10.2467 6.8259 10.3926 6.82989 10.5392C6.84033 10.8354 6.96672 11.1157 7.18183 11.3196C7.39695 11.5234 7.68355 11.6347 7.97989 11.6292H8.69989C8.51319 11.7358 8.34165 11.867 8.18989 12.0192L7.87989 12.3792C7.63976 12.3833 7.40128 12.339 7.17863 12.249C6.95598 12.1589 6.75373 12.025 6.58391 11.8552C6.41409 11.6854 6.28018 11.4831 6.19016 11.2605C6.10013 11.0378 6.05583 10.7994 6.05989 10.5592C6.03675 10.2976 6.0699 10.0341 6.15709 9.78633C6.24428 9.53858 6.3835 9.31237 6.56538 9.12291C6.74727 8.93344 6.96761 8.78511 7.21159 8.68789C7.45557 8.59066 7.71754 8.54679 7.97989 8.55923" fill="#50C4CD"/>
<path d="M13.5 12.3398C13.7619 12.3525 14.0235 12.3086 14.2671 12.2113C14.5106 12.114 14.7304 11.9655 14.9115 11.7759C15.0927 11.5862 15.2309 11.3598 15.3169 11.112C15.4029 10.8643 15.4346 10.6009 15.41 10.3398C15.4191 9.94359 15.2949 9.55575 15.0574 9.23845C14.8199 8.92114 14.4827 8.69275 14.1 8.58984C14.0458 8.71321 13.9787 8.83052 13.9 8.93984C13.7898 9.07521 13.6538 9.18737 13.5 9.26984C13.6534 9.26571 13.8061 9.29289 13.9487 9.34973C14.0913 9.40656 14.2209 9.49185 14.3294 9.6004C14.438 9.70895 14.5233 9.83848 14.5801 9.98109C14.6369 10.1237 14.6641 10.2764 14.66 10.4298C14.6626 10.5769 14.6363 10.7231 14.5824 10.86C14.5286 10.9969 14.4483 11.1218 14.3461 11.2277C14.244 11.3336 14.122 11.4183 13.9871 11.477C13.8522 11.5357 13.7071 11.5672 13.56 11.5698H9.79997C9.43932 11.5699 9.08672 11.6765 8.78646 11.8763C8.48621 12.0761 8.25168 12.3601 8.11233 12.6928C7.97298 13.0254 7.93503 13.3918 8.00325 13.746C8.07146 14.1001 8.2428 14.4262 8.49573 14.6833C8.74867 14.9404 9.07193 15.117 9.42492 15.1909C9.77791 15.2649 10.1449 15.2329 10.4797 15.099C10.8146 14.9651 11.1024 14.7352 11.3071 14.4382C11.5117 14.1413 11.6241 13.7904 11.63 13.4298H10.81C10.81 13.6951 10.7046 13.9494 10.5171 14.137C10.3295 14.3245 10.0752 14.4298 9.80997 14.4298C9.54475 14.4298 9.2904 14.3245 9.10286 14.137C8.91533 13.9494 8.80997 13.6951 8.80997 13.4298C8.80997 13.1646 8.91533 12.9103 9.10286 12.7227C9.2904 12.5352 9.54475 12.4298 9.80997 12.4298H13.5" fill="#50C4CD"/>
</svg>
