<svg id="Layer_1" data-name="Layer 1" xmlns="http://www.w3.org/2000/svg" viewBox="0 0 93.82 29.16"><defs><style>.cls-1{fill:none;stroke:#50c4cd;stroke-miterlimit:10;}.cls-2{fill:#50c4cd;}</style></defs><path class="cls-1" d="M19.39,15A9.45,9.45,0,0,1,.5,15c0-2.41,2.74-.72,2.74-4.67S5.78,5.57,10,5.57A9.45,9.45,0,0,1,19.39,15Z"/><path class="cls-2" d="M30.33,23.13V3.92h1.9V21.45H43.32v1.68Z"/><path class="cls-2" d="M45.73,6.09V3.38h1.84V6.09Zm0,17V9h1.84V23.13Z"/><path class="cls-2" d="M55.82,23.13l-5.71-14H52L56.84,21.3,61.69,9.09H63.5l-5.71,14Z"/><path class="cls-2" d="M70.23,23.13l-5.7-14h1.92L71.26,21.3,76.1,9.09h1.82l-5.71,14Z"/><path class="cls-2" d="M86.06,23.4a6.81,6.81,0,0,1-2.82-.58A7,7,0,0,1,81,21.23a7.32,7.32,0,0,1-1.47-2.33A7.42,7.42,0,0,1,79,16.07a7.34,7.34,0,0,1,.9-3.6,7.09,7.09,0,0,1,2.51-2.62,6.8,6.8,0,0,1,3.62-1,6.56,6.56,0,0,1,3.64,1,7.09,7.09,0,0,1,2.45,2.62A7.32,7.32,0,0,1,93,16.05v.41a1.19,1.19,0,0,1,0,.31H80.92a6,6,0,0,0,.85,2.68,5.46,5.46,0,0,0,1.87,1.86,4.84,4.84,0,0,0,2.5.68,5.16,5.16,0,0,0,2.61-.7,3.9,3.9,0,0,0,1.72-1.84l1.59.43a5.3,5.3,0,0,1-1.32,1.82A6.34,6.34,0,0,1,88.64,23,7.29,7.29,0,0,1,86.06,23.4Zm-5.19-7.95H91.28a5.83,5.83,0,0,0-.82-2.68A5.31,5.31,0,0,0,88.59,11a5.1,5.1,0,0,0-2.53-.65,5,5,0,0,0-2.52.65,5.37,5.37,0,0,0-1.85,1.82A5.78,5.78,0,0,0,80.87,15.45Z"/><path class="cls-2" d="M7.48,13.12h3.7a1,1,0,1,0-1-1H9.36a1.83,1.83,0,1,1,1.82,1.85H7.42a1.11,1.11,0,0,0-1.09,1.14,1.13,1.13,0,0,0,1.15,1.09H8.2a2.4,2.4,0,0,0-.51.39l-.31.36a1.79,1.79,0,0,1-1.82-1.82,1.84,1.84,0,0,1,1.92-2"/><path class="cls-2" d="M13,16.91a1.83,1.83,0,0,0,1.91-2,1.77,1.77,0,0,0-1.31-1.75,1.92,1.92,0,0,1-.2.35,1.32,1.32,0,0,1-.4.33A1.13,1.13,0,0,1,14.16,15a1.12,1.12,0,0,1-1.1,1.14H9.3A1.83,1.83,0,1,0,11.13,18h-.82a1,1,0,0,1-2,0,1,1,0,0,1,1-1H13"/></svg>